<svg width="30" height="29" viewBox="0 0 30 29" fill="none" xmlns="http://www.w3.org/2000/svg">
<path d="M29.25 14.5C29.25 6.49123 22.7588 0 14.75 0C6.74123 0 0.25 6.49123 0.25 14.5C0.25 21.7381 5.54945 27.7367 12.4856 28.8252V18.6951H8.80699V14.5H12.4856V11.306C12.4856 7.67507 14.6467 5.66493 17.9599 5.66493C19.5489 5.66493 21.2094 5.95096 21.2094 5.95096V9.51836H19.3821C17.5785 9.51836 17.0223 10.6386 17.0223 11.7827V14.5H21.0426L20.399 18.6951H17.0223V28.8252C23.9505 27.7367 29.25 21.7381 29.25 14.5Z" fill="#1877F2"/>
<path d="M20.3907 18.6951L21.0343 14.5H17.014V11.7827C17.014 10.6386 17.5781 9.51834 19.3737 9.51834H21.2011V5.95094C21.2011 5.95094 19.5406 5.66492 17.9516 5.66492C14.6384 5.66492 12.4773 7.67505 12.4773 11.306V14.5H8.79868V18.6951H12.4773V28.8252C13.2162 28.9444 13.971 29 14.7417 29C15.5124 29 16.2672 28.9364 17.0061 28.8252V18.6951H20.3907Z" fill="white"/>
</svg>
